<svg width="147" height="35" viewBox="0 0 147 35" fill="none" xmlns="http://www.w3.org/2000/svg">
<path d="M16.6809 33.3689C14.5321 33.3691 12.4044 32.946 10.4191 32.1238C8.43383 31.3015 6.62998 30.0963 5.11055 28.5769C3.59112 27.0574 2.38588 25.2536 1.56365 23.2683C0.741422 21.2831 0.318311 19.1553 0.318481 17.0065C0.318311 14.8577 0.741422 12.7299 1.56365 10.7447C2.38588 8.75939 3.59112 6.95554 5.11055 5.43611C6.62998 3.91669 8.43383 2.71144 10.4191 1.88921C12.4044 1.06698 14.5321 0.643873 16.6809 0.644043C18.8297 0.643873 20.9575 1.06698 22.9428 1.88921C24.928 2.71144 26.7319 3.91669 28.2513 5.43611C29.7707 6.95554 30.976 8.75939 31.7982 10.7447C32.6204 12.7299 33.0435 14.8577 33.0434 17.0065C33.0435 19.1553 32.6204 21.2831 31.7982 23.2683C30.976 25.2536 29.7707 27.0574 28.2513 28.5769C26.7319 30.0963 24.928 31.3015 22.9428 32.1238C20.9575 32.946 18.8297 33.3691 16.6809 33.3689Z" fill="url(#paint0_linear_101_2)"/>
<path d="M12.9432 21.596C11.1071 21.596 9.27161 21.5999 7.43548 21.596C7.0878 21.5954 6.75126 21.4733 6.48406 21.2509C6.21686 21.0284 6.03579 20.7196 5.97215 20.3778C5.92604 20.1548 5.93084 19.9243 5.9862 19.7034C6.04156 19.4826 6.14605 19.277 6.29188 19.1022C6.4377 18.9273 6.62111 18.7876 6.82844 18.6935C7.03576 18.5993 7.26166 18.5532 7.48929 18.5585C8.35808 18.5624 9.22428 18.5546 10.0931 18.5624C10.1815 18.5705 10.2704 18.5514 10.3477 18.5076C10.425 18.4638 10.487 18.3974 10.5255 18.3173C11.7626 16.1626 13.0044 14.0112 14.2509 11.863C14.3077 11.7818 14.3382 11.6852 14.3382 11.5861C14.3382 11.4871 14.3077 11.3904 14.2509 11.3093C13.9268 10.7698 13.5987 10.233 13.3147 9.67284C13.1799 9.4318 13.1135 9.15846 13.1229 8.88242C13.1323 8.60638 13.2171 8.33818 13.368 8.10688C13.519 7.87558 13.7304 7.69 13.9793 7.57026C14.2282 7.45052 14.5051 7.40118 14.78 7.42759C15.0203 7.44355 15.2531 7.51784 15.4583 7.64403C15.6635 7.77022 15.8348 7.94451 15.9574 8.1518C16.1753 8.48311 16.1779 8.48116 16.3853 8.16607C16.5493 7.88863 16.7967 7.67008 17.0923 7.54162C17.3879 7.41315 17.7165 7.38134 18.0312 7.45071C18.3459 7.52008 18.6307 7.68709 18.8449 7.92791C19.059 8.16874 19.1917 8.47106 19.2238 8.79173C19.2538 9.17285 19.1522 9.55273 18.9359 9.86799C17.8389 11.7698 16.7419 13.6701 15.6449 15.5689C15.1262 16.4684 14.6075 17.3673 14.0889 18.2654C13.9281 18.5436 13.9346 18.5559 14.2555 18.5559C15.1139 18.5559 15.9717 18.5624 16.8301 18.552C16.9232 18.5432 17.0169 18.5634 17.0981 18.6098C17.1793 18.6562 17.2443 18.7266 17.2839 18.8114C17.7553 19.6451 18.239 20.4705 18.7161 21.3017C18.8685 21.5675 18.8542 21.596 18.543 21.596C16.6741 21.5999 14.8079 21.5999 12.9432 21.596Z" fill="white"/>
<path d="M23.357 25.5473C23.0708 25.5491 22.7898 25.4706 22.546 25.3207C22.3023 25.1708 22.1054 24.9555 21.9779 24.6993C21.41 23.7155 20.842 22.7311 20.2741 21.746C19.1831 19.8546 18.0902 17.9644 16.9953 16.0755C16.9329 15.9878 16.8994 15.8827 16.8994 15.775C16.8994 15.6673 16.9329 15.5623 16.9953 15.4745C17.4647 14.6861 17.9153 13.888 18.3744 13.0931C18.5883 12.7249 18.6052 12.7229 18.8127 13.0828C19.7852 14.7685 20.7636 16.4457 21.7205 18.1399C21.7793 18.279 21.8812 18.3955 22.0113 18.4723C22.1413 18.549 22.2926 18.5818 22.4428 18.5659C23.2396 18.5373 24.0377 18.5535 24.8365 18.5574C25.042 18.5488 25.2472 18.5819 25.4396 18.6549C25.6319 18.7278 25.8075 18.8389 25.9557 18.9816C26.1039 19.1243 26.2216 19.2955 26.3018 19.485C26.3819 19.6745 26.4228 19.8782 26.422 20.0839C26.4211 20.2897 26.3786 20.4931 26.2969 20.6819C26.2152 20.8707 26.0961 21.041 25.9468 21.1825C25.7974 21.3239 25.621 21.4337 25.428 21.505C25.2351 21.5764 25.0296 21.6078 24.8242 21.5976C24.5648 21.5976 24.3055 21.6079 24.0462 21.5976C23.7706 21.5833 23.7661 21.6818 23.888 21.888C24.1596 22.3419 24.4313 22.7957 24.6783 23.2632C24.7929 23.4576 24.8626 23.6752 24.8825 23.9C24.9024 24.1249 24.8719 24.3513 24.7932 24.5628C24.7145 24.7744 24.5896 24.9657 24.4276 25.1229C24.2656 25.2801 24.0707 25.3991 23.8568 25.4715C23.697 25.5299 23.527 25.5557 23.357 25.5473Z" fill="white"/>
<path d="M9.25752 25.5458C7.93813 25.5458 7.21198 24.5246 7.55366 23.5288C7.57829 23.4529 7.61849 23.3829 7.64637 23.3083C7.69672 23.1171 7.81718 22.9519 7.9838 22.8455C8.15042 22.739 8.35099 22.6992 8.54563 22.7339C9.40989 22.7793 10.2787 22.7443 11.1449 22.7482C11.4515 22.7482 11.4742 22.7851 11.3284 23.0444C11.0042 23.6163 10.68 24.1868 10.3383 24.7509C10.2344 24.9599 10.0822 25.141 9.8942 25.2793C9.70621 25.4175 9.48794 25.5089 9.25752 25.5458Z" fill="white"/>
<path d="M41.0288 11.2598V3.99352H43.1266C45.8054 3.99352 47.1448 5.17416 47.1448 7.53543C47.1448 8.65696 46.7733 9.5589 46.0301 10.2413C45.2869 10.9203 44.2904 11.2598 43.0405 11.2598H41.0288ZM42.2297 5.01708V10.2413H43.1925C44.0404 10.2413 44.6991 10.0082 45.1687 9.54201C45.6416 9.07584 45.8781 8.41711 45.8781 7.56584C45.8781 5.86666 44.9981 5.01708 43.2381 5.01708H42.2297ZM50.6462 11.3814C49.8456 11.3814 49.2055 11.1398 48.7258 10.6568C48.2495 10.1703 48.0113 9.52681 48.0113 8.72621C48.0113 7.85466 48.2596 7.17398 48.7562 6.68416C49.2561 6.19434 49.9284 5.94943 50.7729 5.94943C51.5836 5.94943 52.2153 6.18758 52.668 6.66389C53.1207 7.1402 53.347 7.80061 53.347 8.64513C53.347 9.47276 53.1021 10.1366 52.6123 10.6365C52.1258 11.1331 51.4705 11.3814 50.6462 11.3814ZM50.702 6.88684C50.2425 6.88684 49.8794 7.0473 49.6125 7.36822C49.3457 7.68914 49.2122 8.13167 49.2122 8.6958C49.2122 9.23967 49.3474 9.66869 49.6176 9.98285C49.8878 10.2936 50.2493 10.449 50.702 10.449C51.1648 10.449 51.5195 10.2953 51.7661 9.98792C52.016 9.68051 52.141 9.24305 52.141 8.67554C52.141 8.10464 52.016 7.6638 51.7661 7.35302C51.5195 7.04223 51.1648 6.88684 50.702 6.88684ZM61.5253 6.07104L59.9951 11.2598H58.7637L57.8213 7.74319C57.7841 7.60806 57.7605 7.45605 57.7503 7.28715H57.7301C57.7233 7.402 57.6929 7.55064 57.6388 7.73305L56.6153 11.2598H55.4093L53.8841 6.07104H55.1002L56.0427 9.81057C56.0731 9.92205 56.0934 10.0707 56.1035 10.2565H56.139C56.1491 10.1146 56.1761 9.96258 56.2201 9.80044L57.2689 6.07104H58.3736L59.3059 9.82577C59.3363 9.944 59.3583 10.0926 59.3718 10.2717H59.4073C59.414 10.1467 59.4394 9.99805 59.4833 9.82577L60.4055 6.07104H61.5253ZM67.0232 11.2598H65.8476V8.33604C65.8476 7.36653 65.5047 6.88178 64.819 6.88178C64.4609 6.88178 64.1653 7.0169 63.9322 7.28715C63.6991 7.55401 63.5826 7.89182 63.5826 8.30057V11.2598H62.4019V6.07104H63.5826V6.93245H63.6028C63.9913 6.2771 64.5521 5.94943 65.2851 5.94943C65.8493 5.94943 66.28 6.13353 66.5772 6.50174C66.8745 6.86657 67.0232 7.39524 67.0232 8.08775V11.2598ZM69.6428 11.2598H68.4622V3.57802H69.6428V11.2598ZM73.4787 11.3814C72.6781 11.3814 72.0379 11.1398 71.5582 10.6568C71.0819 10.1703 70.8438 9.52681 70.8438 8.72621C70.8438 7.85466 71.092 7.17398 71.5886 6.68416C72.0886 6.19434 72.7608 5.94943 73.6053 5.94943C74.4161 5.94943 75.0478 6.18758 75.5004 6.66389C75.9531 7.1402 76.1794 7.80061 76.1794 8.64513C76.1794 9.47276 75.9345 10.1366 75.4447 10.6365C74.9583 11.1331 74.3029 11.3814 73.4787 11.3814ZM73.5344 6.88684C73.075 6.88684 72.7118 7.0473 72.445 7.36822C72.1781 7.68914 72.0447 8.13167 72.0447 8.6958C72.0447 9.23967 72.1798 9.66869 72.45 9.98285C72.7203 10.2936 73.0817 10.449 73.5344 10.449C73.9972 10.449 74.3519 10.2953 74.5985 9.98792C74.8485 9.68051 74.9735 9.24305 74.9735 8.67554C74.9735 8.10464 74.8485 7.6638 74.5985 7.35302C74.3519 7.04223 73.9972 6.88684 73.5344 6.88684ZM81.2415 11.2598H80.1014V10.449H80.0811C79.723 11.0706 79.1977 11.3814 78.5052 11.3814C77.9952 11.3814 77.5948 11.2429 77.3043 10.9659C77.0172 10.6889 76.8736 10.3223 76.8736 9.86631C76.8736 8.88667 77.4378 8.31577 78.566 8.15362L80.1064 7.93574C80.1064 7.19594 79.7551 6.82604 79.0525 6.82604C78.4343 6.82604 77.8769 7.03886 77.3803 7.46449V6.43587C77.9276 6.11157 78.5593 5.94943 79.2754 5.94943C80.5861 5.94943 81.2415 6.59464 81.2415 7.88507V11.2598ZM80.1064 8.71101L79.017 8.86302C78.6792 8.90693 78.4242 8.9897 78.2519 9.11131C78.083 9.22954 77.9985 9.43898 77.9985 9.73963C77.9985 9.95921 78.0762 10.1399 78.2316 10.2818C78.3904 10.4203 78.6015 10.4896 78.865 10.4896C79.2231 10.4896 79.5187 10.3646 79.7518 10.1146C79.9882 9.86124 80.1064 9.5437 80.1064 9.16198V8.71101ZM87.398 11.2598H86.2225V10.3781H86.2022C85.8238 11.0469 85.2411 11.3814 84.454 11.3814C83.8156 11.3814 83.3038 11.15 82.9187 10.6872C82.537 10.221 82.3461 9.58762 82.3461 8.78701C82.3461 7.92898 82.5572 7.24154 82.9795 6.7247C83.4051 6.20785 83.971 5.94943 84.677 5.94943C85.3763 5.94943 85.8847 6.22981 86.2022 6.79057H86.2225V3.57802H87.398V11.2598ZM86.2377 8.88835V8.20936C86.2377 7.84115 86.1177 7.52868 85.8779 7.27194C85.6381 7.01521 85.3323 6.88684 84.9607 6.88684C84.5216 6.88684 84.1753 7.05068 83.922 7.37835C83.672 7.70603 83.547 8.16038 83.547 8.74141C83.547 9.26839 83.6669 9.68558 83.9068 9.99299C84.15 10.297 84.476 10.449 84.8847 10.449C85.2867 10.449 85.6127 10.3021 85.8627 10.0082C86.1127 9.71092 86.2377 9.33764 86.2377 8.88835ZM94.7251 4.5357C94.5663 4.44449 94.3856 4.39889 94.1829 4.39889C93.612 4.39889 93.3266 4.72149 93.3266 5.36671V6.07104H94.5325V6.99325H93.3316V11.2598H92.1561V6.99325H91.2693V6.07104H92.1561V5.2299C92.1561 4.68265 92.3351 4.25194 92.6932 3.93778C93.0512 3.62024 93.4988 3.46147 94.036 3.46147C94.3265 3.46147 94.5562 3.49356 94.7251 3.55775V4.5357ZM97.6691 11.3814C96.8685 11.3814 96.2283 11.1398 95.7486 10.6568C95.2723 10.1703 95.0342 9.52681 95.0342 8.72621C95.0342 7.85466 95.2825 7.17398 95.779 6.68416C96.279 6.19434 96.9512 5.94943 97.7958 5.94943C98.6065 5.94943 99.2382 6.18758 99.6909 6.66389C100.144 7.1402 100.37 7.80061 100.37 8.64513C100.37 9.47276 100.125 10.1366 99.6351 10.6365C99.1487 11.1331 98.4933 11.3814 97.6691 11.3814ZM97.7248 6.88684C97.2654 6.88684 96.9023 7.0473 96.6354 7.36822C96.3685 7.68914 96.2351 8.13167 96.2351 8.6958C96.2351 9.23967 96.3702 9.66869 96.6405 9.98285C96.9107 10.2936 97.2722 10.449 97.7248 10.449C98.1876 10.449 98.5423 10.2953 98.7889 9.98792C99.0389 9.68051 99.1639 9.24305 99.1639 8.67554C99.1639 8.10464 99.0389 7.6638 98.7889 7.35302C98.5423 7.04223 98.1876 6.88684 97.7248 6.88684ZM104.581 7.19087C104.439 7.07939 104.234 7.02366 103.968 7.02366C103.62 7.02366 103.329 7.18074 103.096 7.4949C102.863 7.80906 102.746 8.23639 102.746 8.77688V11.2598H101.571V6.07104H102.746V7.1402H102.767C102.881 6.77537 103.057 6.49161 103.294 6.28892C103.533 6.08286 103.8 5.97983 104.094 5.97983C104.307 5.97983 104.469 6.01192 104.581 6.0761V7.19087Z" fill="black"/>
<path d="M50.8336 30.2554H48.5479L47.4181 27.0588H42.4787L41.3927 30.2554H39.1157L43.8186 17.6967H46.1657L50.8336 30.2554ZM46.8664 25.3598L45.1235 20.3503C45.071 20.1869 45.0155 19.9241 44.9571 19.5621H44.9221C44.8696 19.8949 44.8112 20.1577 44.747 20.3503L43.0217 25.3598H46.8664ZM54.4068 28.933H54.3718V34.3804H52.34V21.2874H54.3718V22.8638H54.4068C55.1016 21.6728 56.1175 21.0772 57.4546 21.0772C58.5931 21.0772 59.4805 21.4772 60.1169 22.2771C60.7533 23.0769 61.0715 24.1512 61.0715 25.4999C61.0715 26.9946 60.7125 28.1915 59.9943 29.0906C59.2762 29.9898 58.2953 30.4393 57.0517 30.4393C55.9073 30.4393 55.0257 29.9372 54.4068 28.933ZM54.3543 25.3948V26.5071C54.3543 27.161 54.5616 27.7157 54.9761 28.1711C55.3965 28.6265 55.9278 28.8542 56.57 28.8542C57.3232 28.8542 57.9129 28.5623 58.3391 27.9784C58.7712 27.3887 58.9872 26.5684 58.9872 25.5174C58.9872 24.6358 58.7858 23.9469 58.3829 23.4506C57.9859 22.9485 57.4458 22.6974 56.7627 22.6974C56.0387 22.6974 55.4549 22.9543 55.0111 23.4681C54.5732 23.9819 54.3543 24.6242 54.3543 25.3948ZM65.214 28.933H65.179V34.3804H63.1471V21.2874H65.179V22.8638H65.214C65.9088 21.6728 66.9247 21.0772 68.2617 21.0772C69.4002 21.0772 70.2877 21.4772 70.9241 22.2771C71.5605 23.0769 71.8787 24.1512 71.8787 25.4999C71.8787 26.9946 71.5196 28.1915 70.8015 29.0906C70.0833 29.9898 69.1025 30.4393 67.8589 30.4393C66.7145 30.4393 65.8329 29.9372 65.214 28.933ZM65.1614 25.3948V26.5071C65.1614 27.161 65.3687 27.7157 65.7833 28.1711C66.2036 28.6265 66.7349 28.8542 67.3772 28.8542C68.1303 28.8542 68.72 28.5623 69.1463 27.9784C69.5783 27.3887 69.7943 26.5684 69.7943 25.5174C69.7943 24.6358 69.5929 23.9469 69.19 23.4506C68.793 22.9485 68.253 22.6974 67.5698 22.6974C66.8459 22.6974 66.262 22.9543 65.8183 23.4681C65.3804 23.9819 65.1614 24.6242 65.1614 25.3948ZM75.9949 30.2554H73.9543V16.9786H75.9949V30.2554ZM86.2415 26.3232H80.1286C80.1519 27.1522 80.4059 27.7916 80.8905 28.2411C81.3809 28.6907 82.0524 28.9155 82.9048 28.9155C83.8623 28.9155 84.741 28.6294 85.5409 28.0572V29.6949C84.7235 30.2087 83.6434 30.4656 82.3005 30.4656C80.981 30.4656 79.9447 30.0598 79.1915 29.2483C78.4441 28.4309 78.0705 27.2836 78.0705 25.8065C78.0705 24.411 78.4821 23.2754 79.3053 22.3997C80.1344 21.518 81.162 21.0772 82.3881 21.0772C83.6142 21.0772 84.5629 21.4713 85.2344 22.2595C85.9058 23.0477 86.2415 24.1425 86.2415 25.5437V26.3232ZM84.2798 24.8869C84.2739 24.1571 84.1017 23.5907 83.7631 23.1879C83.4244 22.7792 82.9573 22.5748 82.3618 22.5748C81.778 22.5748 81.2817 22.7879 80.873 23.2141C80.4701 23.6404 80.222 24.1979 80.1286 24.8869H84.2798ZM92.7661 29.7562V27.6106C92.9588 27.7857 93.1865 27.9434 93.4492 28.0835C93.7178 28.2236 94.001 28.3433 94.2987 28.4426C94.5965 28.536 94.8943 28.609 95.192 28.6615C95.4898 28.7141 95.7642 28.7403 96.0153 28.7403C96.891 28.7403 97.542 28.5944 97.9683 28.3024C98.4003 28.0105 98.6163 27.5872 98.6163 27.0326C98.6163 26.7348 98.5433 26.4779 98.3974 26.2619C98.2573 26.04 98.0588 25.8386 97.8019 25.6576C97.545 25.4766 97.2414 25.3043 96.891 25.1409C96.5466 24.9715 96.1758 24.7964 95.7788 24.6154C95.3526 24.3877 94.9556 24.1571 94.5877 23.9235C94.2199 23.69 93.8988 23.4331 93.6244 23.1528C93.3558 22.8667 93.1427 22.5456 92.9851 22.1895C92.8332 21.8333 92.7573 21.4159 92.7573 20.9371C92.7573 20.3474 92.8887 19.8365 93.1514 19.4045C93.42 18.9666 93.7703 18.6075 94.2024 18.3273C94.6403 18.0412 95.1366 17.831 95.6912 17.6967C96.2459 17.5566 96.8122 17.4865 97.3902 17.4865C98.7039 17.4865 99.6614 17.6354 100.263 17.9332V19.9913C99.5505 19.4775 98.6338 19.2206 97.5128 19.2206C97.2034 19.2206 96.894 19.2498 96.5845 19.3082C96.2809 19.3665 96.0065 19.4629 95.7613 19.5972C95.5219 19.7314 95.3263 19.9037 95.1745 20.1139C95.0227 20.3241 94.9468 20.578 94.9468 20.8758C94.9468 21.1561 95.0052 21.3984 95.122 21.6027C95.2387 21.8071 95.408 21.9939 95.6299 22.1632C95.8576 22.3325 96.132 22.4989 96.4531 22.6624C96.7801 22.82 97.1567 22.9923 97.5829 23.1791C98.0208 23.4068 98.4324 23.6462 98.8178 23.8973C99.2089 24.1483 99.5505 24.4256 99.8424 24.7292C100.14 25.0329 100.374 25.3715 100.543 25.7452C100.718 26.113 100.806 26.5334 100.806 27.0063C100.806 27.6427 100.677 28.1798 100.42 28.6177C100.164 29.0556 99.8162 29.4118 99.3783 29.6862C98.9462 29.9606 98.447 30.1591 97.8807 30.2817C97.3143 30.4043 96.7159 30.4656 96.0853 30.4656C95.8751 30.4656 95.6153 30.4481 95.3059 30.4131C95.0023 30.3839 94.6899 30.3372 94.3688 30.2729C94.0477 30.2146 93.7441 30.1416 93.458 30.054C93.1719 29.9664 92.9413 29.8672 92.7661 29.7562ZM107.094 30.1591C106.697 30.3576 106.174 30.4569 105.526 30.4569C103.786 30.4569 102.916 29.6219 102.916 27.9521V22.8813H101.419V21.2874H102.916V19.2118L104.948 18.6338V21.2874H107.094V22.8813H104.948V27.3654C104.948 27.8967 105.045 28.2762 105.237 28.5039C105.43 28.7316 105.751 28.8454 106.201 28.8454C106.545 28.8454 106.843 28.7462 107.094 28.5477V30.1591ZM112.716 30.4656C111.333 30.4656 110.226 30.0482 109.397 29.2133C108.574 28.3725 108.162 27.2603 108.162 25.8765C108.162 24.3702 108.591 23.1937 109.45 22.3471C110.314 21.5005 111.476 21.0772 112.935 21.0772C114.337 21.0772 115.428 21.4889 116.211 22.3121C116.993 23.1353 117.384 24.2768 117.384 25.7364C117.384 27.1668 116.961 28.3141 116.114 29.1782C115.274 30.0365 114.141 30.4656 112.716 30.4656ZM112.813 22.6974C112.019 22.6974 111.391 22.9748 110.93 23.5294C110.469 24.0841 110.238 24.8489 110.238 25.824C110.238 26.764 110.472 27.5055 110.939 28.0485C111.406 28.5856 112.03 28.8542 112.813 28.8542C113.613 28.8542 114.226 28.5885 114.652 28.0572C115.084 27.5259 115.3 26.7698 115.3 25.7889C115.3 24.8022 115.084 24.0403 114.652 23.5032C114.226 22.966 113.613 22.6974 112.813 22.6974ZM124.662 23.2229C124.417 23.0302 124.064 22.9339 123.602 22.9339C123.001 22.9339 122.499 23.2054 122.096 23.7484C121.693 24.2914 121.492 25.0299 121.492 25.9641V30.2554H119.46V21.2874H121.492V23.1353H121.527C121.725 22.5048 122.029 22.0143 122.438 21.664C122.852 21.3079 123.313 21.1298 123.821 21.1298C124.189 21.1298 124.469 21.1852 124.662 21.2962V23.2229ZM133.534 26.3232H127.421C127.444 27.1522 127.698 27.7916 128.183 28.2411C128.673 28.6907 129.345 28.9155 130.197 28.9155C131.155 28.9155 132.033 28.6294 132.833 28.0572V29.6949C132.016 30.2087 130.936 30.4656 129.593 30.4656C128.273 30.4656 127.237 30.0598 126.484 29.2483C125.736 28.4309 125.363 27.2836 125.363 25.8065C125.363 24.411 125.774 23.2754 126.598 22.3997C127.427 21.518 128.454 21.0772 129.68 21.0772C130.906 21.0772 131.855 21.4713 132.527 22.2595C133.198 23.0477 133.534 24.1425 133.534 25.5437V26.3232ZM131.572 24.8869C131.566 24.1571 131.394 23.5907 131.055 23.1879C130.717 22.7792 130.25 22.5748 129.654 22.5748C129.07 22.5748 128.574 22.7879 128.165 23.2141C127.762 23.6404 127.514 24.1979 127.421 24.8869H131.572Z" fill="black"/>
<defs>
<linearGradient id="paint0_linear_101_2" x1="16.6809" y1="33.3689" x2="16.6809" y2="0.644043" gradientUnits="userSpaceOnUse">
<stop stop-color="#1F7BF4"/>
<stop offset="1" stop-color="#19B9FA"/>
</linearGradient>
</defs>
</svg>
