<svg width="187" height="105" viewBox="0 0 187 105" fill="none" xmlns="http://www.w3.org/2000/svg">
<path d="M125.625 0C113.12 0 95.4287 3.15905 76.4864 9.33778C42.4458 20.3945 17.2975 36.8866 20.3079 46.1314C21.651 50.2661 28.2738 52.2637 38.185 52.2637C40.2228 52.2637 42.3995 52.1708 44.7152 52.0314C44.9004 51.7991 45.0857 51.5668 45.271 51.2881C47.6793 47.9897 49.7171 46.6889 51.5696 46.596C51.6622 46.596 51.7549 46.596 51.8475 46.596C52.9127 46.596 53.8853 46.9676 54.9042 47.618C55.7842 48.1755 57.0809 49.1511 58.4703 50.2661C58.563 50.2661 58.6556 50.2196 58.7482 50.2196C58.6093 48.1755 58.5167 46.4102 58.6556 45.4346C58.7019 45.1094 58.8409 44.7842 59.0261 44.459C58.8409 43.2047 60.8323 43.5763 59.7671 42.3684C58.4703 40.9283 60.2303 39.5346 61.2029 38.4196C62.1754 37.3047 61.3881 36.1897 61.5271 33.4488C61.666 30.7078 63.8427 26.7126 67.6868 25.1795C68.3815 24.9007 69.0299 24.8078 69.6783 24.8078C72.6886 24.8078 75.097 27.1771 75.097 27.1771C75.097 27.1771 77.8295 27.8275 78.1073 30.2897C78.3389 32.7519 76.6253 36.1432 76.0695 37.7228C75.5138 39.3023 76.5327 39.1629 76.3937 40.2314C76.2548 41.3464 75.4675 41.2999 76.2085 42.7866C76.4864 43.344 76.3937 43.855 76.2085 44.2267C76.4864 44.459 76.7179 44.6913 76.8106 44.97C76.8569 45.1094 76.9958 45.481 77.2274 45.9921C80.3767 45.1094 83.5724 44.1802 86.8143 43.1117V9.80235C86.8143 9.15195 87.0459 8.59447 87.3701 8.12991C87.7869 7.52597 88.4353 7.10786 89.1763 6.96849C89.3616 6.92204 89.5468 6.92204 89.7321 6.92204H143.595C143.549 6.68975 143.502 6.45747 143.41 6.22519C142.205 2.04409 135.583 0 125.625 0Z" fill="#F2F6FB"/>
<path d="M81.4885 60.626L81.0254 63.4134C81.0254 63.4134 79.9139 63.274 79.5897 63.1347C79.4507 63.0882 79.2655 62.6236 79.0802 62.0662C78.015 62.7166 76.9961 63.3669 76.0698 64.0173C76.0698 64.2496 76.0698 64.4354 76.0698 64.6213C76.0698 64.9465 76.1161 65.1788 76.1161 65.3646C76.2088 65.3646 76.3014 65.3646 76.394 65.3646C76.9035 65.3646 77.4592 65.4575 77.8761 65.7362C78.2003 65.9685 78.6634 66.3866 79.0802 66.7583L80.4696 67.0835L81.4885 60.626ZM152.024 39.9993C151.793 39.9993 151.561 39.9993 151.33 39.9993V46.5032V46.689C151.33 48.3615 149.986 49.7087 148.319 49.7087H105.294C99.0414 51.9851 93.2522 54.4473 88.1114 57.0488H99.9214C100.199 57.0488 100.385 57.2811 100.338 57.5599L98.2541 69.4992L98.1615 69.9638C98.1151 70.1496 97.9299 70.3354 97.7446 70.3354H93.3911L94.5953 71.0323L100.292 79.7661C100.292 79.7661 102.422 80.5094 104.738 81.4386C105.618 81.7638 106.544 82.1354 107.378 82.5071C111.917 81.4386 116.641 80.0913 121.457 78.5583C150.45 69.1276 171.708 54.5866 168.975 46.0386C167.678 41.9969 161.38 39.9993 152.024 39.9993Z" fill="#F2F6FB"/>
<path d="M40.7325 56.677C39.5746 57.0022 38.3705 57.3739 37.1663 57.7455C22.6701 62.4376 11.9717 69.499 13.2222 73.4943C13.7779 75.2596 16.6494 76.1423 20.9102 76.1423C23.6427 76.1423 26.931 75.7707 30.5435 75.1203C31.5624 71.1715 33.2297 67.362 34.9896 64.5746C37.6758 60.2542 39.2967 58.303 40.7325 56.677Z" fill="#F2F6FB"/>
<path d="M160.5 23.2283C158.091 23.2283 155.359 23.6928 152.487 24.5755C152.07 24.7149 151.7 24.8543 151.329 24.9936V38.2802C152.997 38.0479 154.757 37.6763 156.517 37.1188C163.927 34.7031 169.021 29.9645 167.91 26.5267C167.215 24.3897 164.344 23.2283 160.5 23.2283Z" fill="#F2F6FB"/>
<path d="M156.563 72.5652C152.534 72.5652 147.208 73.4943 141.557 75.3061C130.535 78.8833 122.476 84.5975 123.588 88.0817C124.143 89.7541 126.737 90.5904 130.581 90.5904C134.61 90.5904 139.936 89.6612 145.587 87.8494C156.609 84.2723 164.668 78.5581 163.556 75.1203C163.001 73.4014 160.407 72.5652 156.563 72.5652Z" fill="#F2F6FB"/>
<path d="M151.885 42.8794C151.885 42.8794 155.776 40.9282 156.702 36.1896C157.582 31.4046 158.786 25.5511 163.186 29.6393C167.632 33.681 163.603 45.2951 156.702 48.129C149.801 50.9628 149.801 50.9628 149.801 50.9628C149.801 50.9628 149.801 43.251 151.885 42.8794Z" fill="#1D5B45"/>
<path d="M147.439 50.2661C147.439 50.2661 154.247 45.9456 157.952 41.9039C161.657 37.8621 160.777 32.6125 160.777 32.6125C160.777 32.6125 162.259 37.3976 158.879 42.0432C155.498 46.6889 147.439 50.2661 147.439 50.2661Z" fill="#12382A"/>
<path d="M150.172 41.6716C150.172 41.6716 152.58 40.5102 153.09 37.6763C153.645 34.796 154.34 31.3118 157.073 33.7275C159.759 36.1433 157.304 43.1117 153.09 44.7842C148.875 46.5031 148.875 46.5031 148.875 46.5031C148.875 46.5031 148.875 41.9039 150.172 41.6716Z" fill="#2C8443"/>
<path d="M147.439 46.0848C147.439 46.0848 151.607 43.4832 153.877 41.0675C156.146 38.6517 155.59 35.4927 155.59 35.4927C155.59 35.4927 156.517 38.3265 154.432 41.1139C152.395 43.9478 147.439 46.0848 147.439 46.0848Z" fill="#1D5B45"/>
<path d="M153.228 47.8504C153.228 47.8504 156.656 45.8992 163.093 41.8575C169.577 37.7693 170.828 35.4 170.411 39.2094C169.994 43.0189 168.234 47.1535 161.843 49.7086C155.451 52.2173 146.791 51.7063 153.228 47.8504Z" fill="#6EAF45"/>
<path d="M153.089 50.4981C153.089 50.4981 155.451 50.0336 160.685 46.2706C165.965 42.5076 166.891 41.6714 166.891 41.6714C166.891 41.6714 161.426 46.3635 158.832 48.2218C156.285 50.08 153.089 50.4981 153.089 50.4981Z" fill="#2C8443"/>
<path d="M150.172 21.6487C150.172 21.6487 156.378 4.59908 162.676 7.71167C168.975 10.8243 148.69 25.7833 148.69 25.7833L150.172 21.6487Z" fill="#2C8443"/>
<path d="M148.875 25.2258C148.875 25.2258 159.342 11.3353 158.879 11.8463C158.369 12.4038 151.746 23.6463 148.875 25.2258Z" fill="#1D5B45"/>
<path d="M148.227 26.6196C148.227 26.6196 157.536 14.6338 161.241 17.8393C164.992 21.0448 153.414 27.27 149.94 27.9668C146.467 28.6637 148.227 26.6196 148.227 26.6196Z" fill="#6EAF45"/>
<path d="M149.801 27.1771C149.801 27.1771 151.283 25.1794 154.896 22.7172C158.555 20.255 159.805 20.1621 159.805 20.1621C159.805 20.1621 151.839 24.8542 149.801 27.1771Z" fill="#2C8443"/>
<path d="M23.6427 100.067C23.6427 100.067 19.9376 101.322 18.1314 98.3949C16.3252 95.4682 18.224 94.7713 15.1673 93.7028C12.1569 92.6343 11.4159 91.9839 10.8138 89.8934C10.2118 87.8028 7.06244 88.2674 5.85828 85.7587C4.65413 83.2501 6.46036 84.0399 4.00574 80.695C1.55111 77.3036 0.0227613 75.3525 1.22692 74.5162C2.38476 73.68 4.79307 73.68 6.46036 76.1887C8.12765 78.6973 9.51706 80.1375 11.5086 80.0446C13.5 79.9517 13.6853 84.5973 16.0936 84.5044C18.5019 84.4115 20.4934 85.5729 21.3271 87.8493C22.1607 90.1257 25.2637 89.5217 26.7921 91.9839C28.3204 94.4461 29.1541 97.1406 29.1541 97.1406L23.6427 100.067Z" fill="#2C8443"/>
<path d="M6.13623 79.3943C6.13623 79.3943 6.22886 79.4872 6.3678 79.673C7.43301 80.8344 11.6012 85.4801 16.7421 90.2651C22.6702 95.8399 26.9774 98.2557 26.9774 98.2557L26.2827 98.6273C26.2827 98.6273 23.226 97.0013 17.3441 91.473C11.5086 85.9447 6.13623 79.3943 6.13623 79.3943Z" fill="#1D5B45"/>
<path d="M23.2259 97.0944C23.2259 97.0944 18.224 96.8157 17.4367 92.4487C16.6493 88.0818 19.2429 88.1747 16.1399 85.4338C13.0369 82.7393 12.4348 81.5779 12.7127 78.7905C12.9906 76.0031 8.96127 75.0739 8.7297 71.4968C8.45182 67.9196 10.2581 69.7314 8.91496 64.5283C7.61818 59.3252 6.6919 56.259 8.49813 55.7945C10.2581 55.3763 13.1758 56.4913 13.9632 60.3007C14.7505 64.1102 15.7694 66.4795 18.1777 67.3157C20.586 68.1519 18.6408 73.7732 21.5586 74.8417C24.5227 75.8637 26.3289 78.233 26.2363 81.3456C26.1436 84.4582 30.1266 85.2479 30.8213 88.8716C31.4697 92.5416 31.1918 96.1653 31.1918 96.1653L23.2259 97.0944Z" fill="#6EAF45"/>
<path d="M12.0643 64.0637C12.0643 64.0637 12.1106 64.2031 12.2496 64.5283C12.9443 66.433 15.7694 73.959 19.6135 82.1353C24.1059 91.6125 28.0889 96.5834 28.0889 96.5834L27.1163 96.6763C27.1163 96.6763 24.2448 93.2385 19.845 83.8542C15.3989 74.47 12.0643 64.0637 12.0643 64.0637Z" fill="#2C8443"/>
<path d="M31.8865 96.1652C31.8865 96.1652 27.7646 95.329 28.4593 92.4952C29.154 89.6149 29.1077 87.4314 27.5794 85.8054C26.051 84.2259 24.9858 81.9495 25.8194 79.1621C26.6531 76.3747 26.4215 75.8172 25.171 72.9834C23.9206 70.1495 22.4385 65.8291 25.8657 64.8999C29.293 63.9708 30.0803 71.5432 31.7013 73.448C33.2759 75.3527 36.9347 76.096 37.3979 79.6267C37.861 83.1574 36.7031 84.3653 39.9451 86.1771C43.1407 87.9889 42.1682 93.7495 41.2419 95.1897L31.8865 96.1652Z" fill="#2C8443"/>
<path d="M28.5056 71.729C28.5056 71.729 32.6738 86.781 34.3875 90.3117C36.1011 93.8888 36.981 95.6077 36.981 95.6077L35.9621 95.7006C35.9621 95.7471 29.1077 78.0471 28.5056 71.729Z" fill="#1D5B45"/>
<path d="M151.33 9.8024V46.689C151.33 48.3614 149.986 49.7086 148.319 49.7086H89.825C88.1577 49.7086 86.8146 48.3614 86.8146 46.689V9.8024C86.8146 8.12996 88.1577 6.78271 89.825 6.78271H148.365C149.986 6.82917 151.33 8.12996 151.33 9.8024Z" fill="#E1E6F4"/>
<path d="M151.33 9.80233V12.822H86.8146V9.80233C86.8146 8.50154 87.6482 7.38658 88.8524 6.96847C89.1303 6.87556 89.4545 6.8291 89.825 6.8291H148.365C149.986 6.8291 151.33 8.12989 151.33 9.80233Z" fill="#6776E8"/>
<path d="M89.1766 15.0519V47.4787C89.1766 47.8968 89.5008 48.222 89.9176 48.222H118.308C118.725 48.222 119.049 47.8968 119.049 47.4787V47.2464C119.049 46.8283 119.373 46.5031 119.79 46.5031H151.283V46.6889C151.283 48.3613 149.94 49.7086 148.273 49.7086H89.825C88.1577 49.7086 86.8146 48.3613 86.8146 46.6889V13.1008C86.9535 12.9149 87.1851 12.822 87.4167 12.822H151.33V14.3086H89.9176C89.5008 14.3086 89.1766 14.6338 89.1766 15.0519Z" fill="#C3C9E0"/>
<mask id="mask0_152_90175" style="mask-type:luminance" maskUnits="userSpaceOnUse" x="86" y="6" width="66" height="7">
<path d="M88.8524 6.96851C87.6482 7.38662 86.8146 8.50157 86.8146 9.80236V12.822H151.33V11.1961H89.7323C89.2692 11.1961 88.8987 10.8244 88.8987 10.3598V6.96851" fill="white"/>
</mask>
<g mask="url(#mask0_152_90175)">
<path d="M151.33 6.96851H86.8146V12.822H151.33V6.96851Z" fill="#5350CD"/>
</g>
<path d="M131.6 7.80444H98.8562C98.532 7.80444 98.2542 8.08318 98.2542 8.40838C98.2542 8.73357 98.532 9.01231 98.8562 9.01231H131.6C131.924 9.01231 132.202 8.73357 132.202 8.40838C132.202 8.08318 131.971 7.80444 131.6 7.80444Z" fill="#67A2E6"/>
<path d="M144.429 7.66528H135.027C134.657 7.66528 134.379 7.94402 134.379 8.31568V8.36213C134.379 8.73379 134.657 9.01253 135.027 9.01253H144.429C144.799 9.01253 145.077 8.73379 145.077 8.36213V8.31568C145.077 7.99048 144.799 7.66528 144.429 7.66528Z" fill="#67A2E6"/>
<path d="M121.179 29.4535H115.436C114.927 29.4535 114.51 29.0354 114.51 28.5244V23.7858C114.51 23.2748 114.927 22.8567 115.436 22.8567H121.179C121.689 22.8567 122.106 23.2748 122.106 23.7858V28.5244C122.106 29.0354 121.689 29.4535 121.179 29.4535Z" fill="#4167AA"/>
<path d="M118.725 26.3409L119.188 27.6881H117.428L117.891 26.3409C117.613 26.2015 117.428 25.8763 117.428 25.5511C117.428 25.0401 117.798 24.6685 118.308 24.6685C118.817 24.6685 119.188 25.0401 119.188 25.5511C119.188 25.8763 119.003 26.2015 118.725 26.3409Z" fill="#343D5B"/>
<path d="M121.272 22.8566H119.975V21.37C119.975 20.4408 119.234 19.6975 118.308 19.6975C117.382 19.6975 116.641 20.4408 116.641 21.37V22.1133H115.344V21.37C115.344 19.744 116.687 18.3967 118.308 18.3967C119.929 18.3967 121.272 19.744 121.272 21.37V22.8566Z" fill="#8697BF"/>
<path d="M132.711 38.373H103.441C102.932 38.373 102.515 37.9548 102.515 37.4438V34.6564C102.515 34.1454 102.932 33.7273 103.441 33.7273H132.711C133.221 33.7273 133.638 34.1454 133.638 34.6564V37.4438C133.638 37.9548 133.221 38.373 132.711 38.373Z" fill="white"/>
<path d="M132.711 45.1557H103.441C102.932 45.1557 102.515 44.7376 102.515 44.2265V41.4391C102.515 40.9281 102.932 40.51 103.441 40.51H132.711C133.221 40.51 133.638 40.9281 133.638 41.4391V44.2265C133.638 44.7376 133.221 45.1557 132.711 45.1557Z" fill="white"/>
<path d="M129.84 36.7006H106.452C106.127 36.7006 105.849 36.4218 105.849 36.0966C105.849 35.7714 106.127 35.4927 106.452 35.4927H129.84C130.164 35.4927 130.442 35.7714 130.442 36.0966C130.396 36.4218 130.164 36.7006 129.84 36.7006Z" fill="#C3C9E0"/>
<path d="M110.898 43.0187C110.898 43.3439 110.62 43.6227 110.296 43.6227C109.971 43.6227 109.694 43.3439 109.694 43.0187C109.694 42.6935 109.971 42.4148 110.296 42.4148C110.62 42.4148 110.898 42.6935 110.898 43.0187Z" fill="#C3C9E0"/>
<path d="M113.121 43.0187C113.121 43.3439 112.843 43.6227 112.519 43.6227C112.195 43.6227 111.917 43.3439 111.917 43.0187C111.917 42.6935 112.195 42.4148 112.519 42.4148C112.843 42.4148 113.121 42.6935 113.121 43.0187Z" fill="#C3C9E0"/>
<path d="M115.39 43.0187C115.39 43.3439 115.112 43.6227 114.788 43.6227C114.464 43.6227 114.186 43.3439 114.186 43.0187C114.186 42.6935 114.464 42.4148 114.788 42.4148C115.112 42.4148 115.39 42.6935 115.39 43.0187Z" fill="#C3C9E0"/>
<path d="M117.613 43.0187C117.613 43.3439 117.335 43.6227 117.011 43.6227C116.687 43.6227 116.409 43.3439 116.409 43.0187C116.409 42.6935 116.687 42.4148 117.011 42.4148C117.335 42.4148 117.613 42.6935 117.613 43.0187Z" fill="#C3C9E0"/>
<path d="M119.836 43.0187C119.836 43.3439 119.558 43.6227 119.234 43.6227C118.91 43.6227 118.632 43.3439 118.632 43.0187C118.632 42.6935 118.91 42.4148 119.234 42.4148C119.605 42.4148 119.836 42.6935 119.836 43.0187Z" fill="#C3C9E0"/>
<path d="M122.106 43.0187C122.106 43.3439 121.828 43.6227 121.504 43.6227C121.179 43.6227 120.901 43.3439 120.901 43.0187C120.901 42.6935 121.179 42.4148 121.504 42.4148C121.828 42.4148 122.106 42.6935 122.106 43.0187Z" fill="#C3C9E0"/>
<path d="M124.329 43.0187C124.329 43.3439 124.051 43.6227 123.727 43.6227C123.402 43.6227 123.125 43.3439 123.125 43.0187C123.125 42.6935 123.402 42.4148 123.727 42.4148C124.051 42.4148 124.329 42.6935 124.329 43.0187Z" fill="#C3C9E0"/>
<path d="M126.598 43.0187C126.598 43.3439 126.32 43.6227 125.996 43.6227C125.672 43.6227 125.394 43.3439 125.394 43.0187C125.394 42.6935 125.672 42.4148 125.996 42.4148C126.32 42.4148 126.598 42.6935 126.598 43.0187Z" fill="#C3C9E0"/>
<path d="M186.991 99.2777C186.991 102.158 148.458 104.527 100.987 104.527C53.4687 104.527 14.9821 102.158 14.9821 99.2777C14.9821 96.3974 53.515 94.0281 100.987 94.0281C148.458 94.0281 186.991 96.3509 186.991 99.2777Z" fill="#E1E6F4"/>
<path d="M117.289 97.9769C117.289 99.8352 98.9951 101.322 76.4403 101.322C53.8856 101.322 35.5917 99.8352 35.5917 97.9769C35.5917 96.1187 53.8856 94.6321 76.4403 94.6321C98.9951 94.6321 117.289 96.1187 117.289 97.9769Z" fill="#9EA9CC"/>
<path d="M168.975 97.0477C168.975 97.8839 160.268 98.5808 149.523 98.5808C138.779 98.5808 130.072 97.8839 130.072 97.0477C130.072 96.2115 138.779 95.5146 149.523 95.5146C160.268 95.5146 168.975 96.2115 168.975 97.0477Z" fill="#9EA9CC"/>
<path d="M109.694 91.2407C108.397 97.0478 100.709 98.7202 82.8779 99.0454C65.0471 99.3706 46.1512 98.4879 35.7769 94.0281C25.4026 89.5218 29.8951 72.7974 35.0359 64.5281C40.1767 56.2588 41.3345 56.6305 45.2712 51.288C47.6795 47.9896 49.7173 46.6888 51.5699 46.5959C52.7277 46.5029 53.7929 46.9211 54.8581 47.6179C57.637 49.4297 65.0935 55.6549 65.0935 55.6549C65.0935 55.6549 88.3892 77.7218 98.2541 80.4163C103.487 81.8564 106.776 83.1572 108.489 84.969C110.018 86.5486 110.296 88.4997 109.694 91.2407Z" fill="#FFC655"/>
<path d="M63.982 80.2769C63.8893 80.2769 63.843 80.2769 63.7504 80.2769C63.2873 80.3698 62.1294 80.5092 60.7863 80.6485C62.6389 81.0666 64.5841 81.3918 66.4829 81.6706C66.7608 81.2524 65.0009 80.2769 63.982 80.2769ZM59.3506 55.9336C57.4981 56.6769 53.7003 59.3714 50.6899 69.406C49.0227 75.1202 52.8667 78.2328 58.4243 79.9981C59.1654 79.8588 59.9064 79.7658 60.4621 79.6729C63.0094 79.3942 59.4896 79.3942 56.0623 77.1643C52.6351 74.9344 54.2561 70.2422 54.2561 70.2422C55.2287 74.5627 56.4792 74.1446 58.0075 75.0273C58.2391 75.1666 58.378 75.2131 58.517 75.2131C59.2117 75.2131 58.4707 73.0761 59.0727 69.3596C59.3043 68.0123 59.8601 66.6186 60.4621 65.3178C60.4621 64.9926 60.5548 64.621 60.5548 64.1564C60.5548 63.8777 60.6011 63.506 60.6011 63.1344C60.6011 62.0194 60.5548 60.7186 60.5548 60.5793C60.5548 60.5793 60.5085 60.5793 60.3232 60.4863C60.0916 60.4399 59.999 60.4399 59.8601 59.7895C59.8137 59.6037 59.5822 57.9777 59.3506 55.9336Z" fill="#FFAA56"/>
<path d="M109.694 91.2408C108.397 97.0478 100.709 98.7203 82.8779 99.0455C65.0471 99.3707 46.1512 98.488 35.7769 94.0282C25.4026 89.5219 29.8951 72.7975 35.0359 64.5282C40.1767 56.2589 41.3345 56.6306 45.2712 51.2881C47.6795 47.9896 49.7173 46.6889 51.5699 46.5959C49.3931 48.0826 45.688 51.1022 44.5302 55.0511C42.8166 60.7188 40.1304 64.1101 35.8695 67.9195C31.655 71.729 31.2845 83.3431 35.0359 88.0817C38.7873 92.7738 50.5046 95.2825 65.6029 96.7691C80.6549 98.2557 105.896 97.373 107.424 91.5195C108.026 89.2896 108.35 87.0132 108.536 85.062C110.018 86.5486 110.296 88.4998 109.694 91.2408Z" fill="#FF8A57"/>
<path d="M54.2561 70.2887C54.2561 70.2887 52.6351 74.9343 56.0623 77.2107C59.4895 79.4406 63.0094 79.4406 60.4621 79.7194C57.9149 79.9981 52.8667 81.1595 54.9971 81.1595C57.1275 81.1595 62.5926 80.5091 63.7504 80.3233C64.9082 80.091 67.5944 81.717 66.1124 81.9493C64.6304 82.1816 63.982 83.9934 63.982 83.9934C63.982 83.9934 65.8345 81.9028 69.7712 82.8784C73.7078 83.854 73.0594 83.1107 75.3288 84.7831C77.5519 86.4556 78.9413 87.106 77.4592 85.5265C75.9772 83.9934 74.6804 82.9249 75.3288 83.4359C75.6067 83.6682 77.4592 83.6682 79.8676 83.6682C83.1095 83.6682 87.3241 83.6682 90.0103 84.2257C94.7342 85.2012 99.6435 89.8469 99.6435 89.8469L94.6416 83.0642C94.6416 83.0642 62.2684 76.1422 61.0179 72.9367C59.7211 69.6847 63.5651 60.4863 63.5651 60.4863C63.5651 60.4863 59.86 65.1784 59.0727 69.5454C58.3317 73.8658 59.4895 76.0958 58.0075 75.2131C56.5255 74.191 55.2287 74.6091 54.2561 70.2887Z" fill="#FF8A57"/>
<path d="M37.0737 73.6801C37.0737 73.6801 30.9603 83.1108 43.5113 88.7321C56.0623 94.3998 64.8156 93.6565 65.0935 93.2384C65.4177 92.8203 66.7608 91.6124 64.4914 89.8006C62.1757 87.9888 46.2438 85.2478 44.1134 81.1132C41.983 76.9321 41.0567 70.5211 37.0737 73.6801Z" fill="#FFE461"/>
<path d="M68.9375 90.8691C68.9375 90.8691 88.7135 90.2652 88.3893 92.6809C88.0651 95.0967 88.1114 95.5148 81.2107 95.5148C74.3099 95.5148 64.0283 92.9132 68.9375 90.8691Z" fill="#FFE461"/>
<path d="M75.1435 27.177C75.1435 27.177 71.5774 23.6928 67.7334 25.1794C63.8893 26.666 61.7589 30.7077 61.5736 33.4487C61.4347 36.1896 62.1757 37.3046 61.2494 38.4195C60.2769 39.5345 58.5169 40.9282 59.8137 42.3683C61.1105 43.8085 58.0075 43.0187 59.4895 45.4345C60.9716 47.8502 75.1435 45.3416 75.1435 45.3416C75.1435 45.3416 76.9961 44.2266 76.2551 42.74C75.5141 41.2534 76.3014 41.2998 76.4403 40.1849C76.5793 39.0699 75.5604 39.2558 76.1161 37.6762C76.6719 36.0967 78.3855 32.7054 78.1539 30.2432C77.8761 27.8274 75.1435 27.177 75.1435 27.177Z" fill="#252549"/>
<path d="M65.5104 41.6251C65.5104 41.6251 66.0198 41.6716 65.9735 40.9747C65.9272 40.3243 65.6493 40.6495 66.6219 39.0236C67.6408 37.3976 67.3629 37.2118 66.9461 36.2826C66.5756 35.3535 68.1502 34.7496 69.0765 33.4023C70.0028 32.1015 71.1606 30.4755 72.1332 29.5464C73.1058 28.6173 74.0784 28.6173 74.5878 28.896C75.1436 29.1748 75.2825 29.7322 75.2825 29.7322C75.2825 29.7322 75.1436 35.5393 73.9394 37.6763C72.7353 39.8133 71.8553 39.8598 70.8364 39.5346C70.8364 39.5346 70.4659 41.3929 70.6975 42.0897C70.9291 42.7866 73.2447 43.7157 71.9016 45.6204C70.5585 47.5251 66.9924 48.4078 65.6956 46.3173C64.4915 44.2732 65.5104 41.6251 65.5104 41.6251Z" fill="#FFBF9F"/>
<path d="M108.119 88.3141C108.119 88.3141 111.315 89.011 112.472 89.6149C113.63 90.2188 115.159 90.4047 115.853 89.3826C116.548 88.3606 116.409 87.6637 117.567 86.7346C118.725 85.8055 121.318 84.4118 120.901 83.4826C120.485 82.507 119.605 82.7393 118.864 83.4362C118.123 84.1795 114.742 84.7834 114.14 85.0622C113.538 85.3409 111.407 85.3873 110.99 85.3873C110.574 85.3873 108.443 84.5976 108.443 84.5976L108.119 88.3141Z" fill="#FFBF9F"/>
<path d="M103.951 92.9595C103.951 92.9595 106.591 94.9107 106.961 96.1651C107.332 97.4194 108.212 98.6737 109.416 98.4879C110.62 98.3021 111.037 97.7446 112.519 97.9304C114.001 98.1627 116.733 99.0918 117.196 98.1627C117.613 97.1871 116.872 96.6761 115.853 96.6761C114.834 96.6296 112.102 94.5855 111.453 94.3068C110.805 94.0745 108.489 92.6808 108.212 92.3556C107.934 92.0304 106.915 90.6367 106.915 90.6367L103.951 92.9595Z" fill="#FFBF9F"/>
<path d="M109.528 88.8787C109.343 89.2968 109.204 89.5756 109.065 89.7149C108.648 90.1795 106.564 88.8323 106.472 88.7393C106.61 88.8787 107.768 90.133 107.954 90.8763C108.139 91.6661 103.646 93.8496 102.766 94.0354C101.933 94.2212 95.7267 85.5338 95.7267 85.5338C95.7267 85.5338 88.6871 83.3968 87.8534 83.0252C87.4829 82.8394 83.9631 82.8393 80.4895 82.8858C76.7381 82.9323 72.9867 83.0252 72.9867 83.0252C72.9867 83.0252 71.1342 82.3748 69.2353 81.6315C67.3828 80.8882 60.3431 78.7976 60.3431 78.7976C60.3431 78.7976 59 77.7291 59 73.4551C59 69.1811 61.362 65 61.362 65L64.8818 65.2787L75.1172 66.0221L92.5774 69.9709L94.43 71.0394L100.127 79.7732C100.127 79.7732 102.257 80.5165 104.573 81.4456C107.305 82.5141 110.316 83.8149 110.547 84.4189C110.918 85.1622 110.13 87.5779 109.528 88.8787Z" fill="#3B345B"/>
<path d="M95.6142 85.3871L95.9384 85.48C95.8921 85.48 95.7995 85.4336 95.6142 85.3871ZM90.0103 83.6682L90.1029 83.7147C90.0566 83.6682 90.0566 83.6682 90.0103 83.6682Z" fill="#5D3C2E"/>
<path d="M73.4299 73.6802C73.4299 73.6802 81.0717 75.8636 85.3789 76.7463C89.686 77.5825 91.1681 79.4408 91.5386 81.8565C91.8165 83.4825 90.9828 83.7613 90.4271 83.7613C90.2418 83.7613 90.0565 83.7148 90.0102 83.7148C90.0565 83.7148 90.0565 83.7148 90.1029 83.7613L95.6142 85.4802C95.7994 85.5266 95.8921 85.5731 95.9384 85.5731C95.7994 85.3872 89.6397 77.4432 89.2229 77.0251C88.7598 76.514 73.4299 73.6802 73.4299 73.6802Z" fill="#26242F"/>
<path d="M100.338 79.7195L106.637 88.7321C106.73 88.7785 108.258 89.8006 108.953 89.8006C109.092 89.8006 109.184 89.7541 109.23 89.7077C109.323 89.6147 109.508 89.2895 109.694 88.8714C108.675 88.3139 107.748 87.6636 107.193 86.8273C106.174 85.3872 105.34 83.2037 104.784 81.3919C102.469 80.4628 100.338 79.7195 100.338 79.7195Z" fill="#26242F"/>
<path d="M60.9252 66.1543C60.2305 67.6874 59.1653 70.5212 59.1653 73.4015C59.1653 77.6755 60.5084 78.744 60.5084 78.744C60.5084 78.744 67.5481 80.8346 69.4006 81.5779C71.2532 82.3212 73.152 82.9716 73.152 82.9716C73.152 82.9716 76.9034 82.8787 80.6548 82.8322C74.7267 82.0425 66.7607 79.1157 64.3987 74.5165C63.2409 72.1937 63.7967 68.9882 64.6303 66.3401C62.8704 66.2937 61.3883 66.2008 60.9252 66.1543Z" fill="#26242F"/>
<path d="M78.2465 59.511C78.2465 59.511 79.2191 63.0417 79.5433 63.1347C79.9138 63.274 80.979 63.4134 80.979 63.4134L81.6737 59.1394L81.2106 58.489C81.2569 58.489 77.7834 57.8386 78.2465 59.511Z" fill="#FFBF9F"/>
<path d="M81.5348 58.4887C81.5348 58.6745 81.2106 58.8603 80.7011 58.9997C79.7286 59.3249 78.2465 59.5572 78.0149 59.5107C77.6908 59.3714 76.5792 55.5155 76.5792 55.5155C76.5792 55.5155 76.5792 55.5619 76.5329 55.7013C76.5329 55.7942 76.4866 55.9336 76.4866 56.0729C76.394 56.7698 76.2087 58.0241 76.0698 59.5107C76.0235 60.1147 75.9771 60.8115 75.9771 61.5084C75.9771 62.6698 76.0235 63.8312 76.0235 64.6674C76.0698 65.1784 76.0698 65.5966 76.0698 65.7824C76.0235 66.3863 74.5414 66.6186 71.2532 66.5721C68.0112 66.4792 61.3883 66.3863 60.8326 66.2005C60.2768 66.0147 60.5084 65.3643 60.5547 64.2958C60.6473 63.2273 60.5084 60.6722 60.5084 60.6722C60.5084 60.6722 60.5084 60.6721 60.2768 60.5792C60.0452 60.5328 59.9526 60.5328 59.8137 59.8824C59.6747 59.232 58.239 48.4076 58.6558 45.4808C59.0726 42.6005 65.5103 41.6714 65.5103 41.6714C65.5103 41.6714 66.1123 42.6005 66.7144 43.3903C67.3628 44.18 69.8174 45.6202 70.0027 45.6202C70.2342 45.6202 70.6511 45.2485 71.0679 44.0871C71.4847 42.9257 70.6974 42.1824 70.6974 42.1824C70.6974 42.1824 71.4384 42.1824 72.6426 42.5076C73.8004 42.8328 76.3477 43.9013 76.8571 45.0163C77.3202 46.0383 81.4885 57.9777 81.5348 58.4887Z" fill="#6776E8"/>
<path d="M76.4866 56.0732C76.394 56.7701 76.2087 58.0244 76.0698 59.511C76.0235 60.115 75.9772 60.8118 75.9772 61.5087L76.4866 56.0732Z" fill="#7972D3"/>
<path d="M64.0746 49.7085C64.0746 49.7085 64.9082 58.3494 64.9082 59.0463C64.9082 59.6038 64.6303 59.6502 64.5377 59.6502H64.4914C64.4914 59.6967 64.723 62.2053 65.0935 62.3447C65.464 62.4841 74.7267 65.5037 75.1436 65.5037C75.3288 65.5037 75.6993 65.4573 76.1161 65.4108C76.1161 65.225 76.1161 64.9463 76.0698 64.6675C74.3562 64.3423 71.9016 63.7849 70.0954 63.1809C66.946 62.1124 64.9545 61.0904 65.2324 60.2541C65.4177 59.6502 67.9649 59.4179 70.2343 59.4179C71.2069 59.4179 72.1332 59.4644 72.7816 59.5108C75.0046 59.7431 75.9772 61.5085 75.9772 61.5085C75.9772 60.8116 76.0235 60.1148 76.0698 59.5108C76.2088 58.0242 76.394 56.7699 76.4866 56.0731L76.7645 53.3321C76.7645 53.3321 75.7456 54.9581 74.3562 55.4227C73.7541 55.6085 72.4574 55.7479 71.0216 55.7479C69.2617 55.7479 67.3165 55.562 66.344 55.0045C64.723 54.0754 64.0746 49.7085 64.0746 49.7085Z" fill="#5350CD"/>
<path d="M60.5084 60.6257C60.5084 60.7651 60.5547 62.1123 60.5547 63.1808C60.5547 63.599 60.5547 63.9242 60.5084 64.2029C60.4621 64.7139 60.4158 65.132 60.4158 65.4572C60.4158 65.7824 60.5084 66.0147 60.7863 66.1076C61.2494 66.247 65.4176 66.3399 68.7522 66.4328C67.1313 66.1541 65.464 65.8753 64.3988 65.5501C61.9904 64.8533 61.4347 64.3887 61.1568 63.6454C60.8789 62.9486 60.5547 60.8116 60.5084 60.6257Z" fill="#5350CD"/>
<path d="M60.5084 60.5793C60.5084 60.5793 61.481 60.4864 62.4999 60.347C63.5188 60.1612 64.4451 59.6501 64.4451 59.6501C64.4451 59.6501 64.6767 62.2053 65.0472 62.3446C65.4177 62.484 74.6804 65.5037 75.0972 65.5037C75.5141 65.5037 76.9035 65.1785 77.7834 65.7824C78.6634 66.3864 80.2381 68.0588 80.2381 68.0588C80.2381 68.0588 80.3307 69.4525 79.636 69.4525C78.9413 69.4525 78.8486 67.9194 77.135 68.2446C76.4403 68.384 75.7456 68.6627 75.0509 68.5234C74.3562 68.384 73.5689 67.9194 72.9668 67.5013C72.1332 66.8974 66.7608 66.3399 64.3525 65.5966C61.9441 64.8997 61.3884 64.4352 61.1105 63.6919C60.8789 62.9021 60.5084 60.5793 60.5084 60.5793Z" fill="#FFBF9F"/>
<path d="M75.2825 48.4077L76.7182 53.3321L76.5329 55.7014C76.5329 55.6085 76.5793 55.5156 76.5793 55.5156C76.5793 55.5156 77.6908 59.3715 78.015 59.5109C78.0613 59.5109 78.1076 59.5109 78.1539 59.5109C78.6171 59.5109 79.8212 59.2786 80.6549 58.9998C80.377 58.9534 79.9602 58.9069 79.4044 58.814C78.2002 58.6282 77.4592 55.655 77.4592 54.2613C77.5055 52.8676 75.4214 48.64 75.2825 48.4077Z" fill="#5350CD"/>
<path d="M64.9546 43.9014C64.5841 43.9014 64.3525 44.1801 64.4451 44.9234C64.4451 44.9234 66.0198 50.7769 69.8175 51.288C69.9564 51.288 70.1417 51.3344 70.2806 51.3344C73.6615 51.3344 74.0784 45.9455 73.8005 44.9699C73.6615 44.4588 73.4763 44.273 73.2447 44.273C72.9668 44.273 72.6426 44.5518 72.1332 44.9699C71.4385 45.5738 70.4659 46.2242 69.5396 46.2242C69.2154 46.2242 68.9375 46.1777 68.6597 45.9919C67.7797 45.4809 65.8808 43.9014 64.9546 43.9014Z" fill="#678EE7"/>
<path d="M106.637 88.7319C106.776 88.8713 107.934 90.1256 108.119 90.8689C107.332 89.8004 106.729 88.8713 106.637 88.7319Z" fill="white"/>
<path d="M70.8825 39.581C70.8825 39.581 69.4468 38.8841 68.891 38.5589C68.2889 38.2337 68.1963 38.1873 68.1963 38.1873C68.1963 38.1873 69.632 41.6715 69.9099 41.3463C70.1878 41.0211 70.8825 39.581 70.8825 39.581Z" fill="#FF9B80"/>
<path d="M100.338 57.5134L98.2541 69.4527L98.1615 69.9173C98.1152 70.1031 97.9299 70.289 97.7446 70.289H72.0869C71.8553 70.289 71.67 70.1031 71.67 69.8709C71.67 69.6386 71.8553 69.4527 72.0869 69.4527H79.6823C79.9139 69.4527 80.0528 69.3134 80.0991 69.0811L81.998 57.4205C82.0443 57.1882 82.2296 57.0488 82.4148 57.0488H99.9214C100.199 57.0488 100.385 57.2811 100.338 57.5134Z" fill="#696B84"/>
<path d="M91.168 63.1344C91.168 63.7384 90.8901 64.2029 90.5659 64.2029C90.2418 64.2029 89.9639 63.7384 89.9639 63.1344C89.9639 62.5305 90.2418 62.0659 90.5659 62.0659C90.9365 62.0659 91.168 62.5305 91.168 63.1344Z" fill="#8186AA"/>
<path d="M82.9243 57.0488H82.4148C82.1832 57.0488 82.0443 57.1882 81.998 57.4205L81.7201 59.1394L81.6738 59.5575L80.2844 68.059L80.0991 69.0811C80.0528 69.3134 79.8676 69.4527 79.6823 69.4527H72.0869C71.8553 69.4527 71.67 69.6386 71.67 69.8709C71.67 70.1031 71.8553 70.289 72.0869 70.289H97.7446C97.9299 70.289 98.1152 70.1496 98.1615 69.9173L98.2541 69.4527H81.9054C81.3959 69.4527 80.9791 68.9882 81.0717 68.4772L82.9243 57.0488Z" fill="#535777"/>
<path d="M166.381 81.7172V84.3188C166.381 84.551 166.196 84.7369 165.965 84.7369H136C135.768 84.7369 135.583 84.551 135.583 84.3188V81.7172C135.583 81.4849 135.768 81.2991 136 81.2991H165.965C166.196 81.2991 166.381 81.4849 166.381 81.7172Z" fill="#FF8A57"/>
<path d="M166.381 83.3896V84.3188C166.381 84.551 166.196 84.7369 165.965 84.7369H136C135.768 84.7369 135.583 84.551 135.583 84.3188V81.7172C135.583 81.4849 135.768 81.2991 136 81.2991H137.574V82.5069C137.574 82.9715 137.945 83.3432 138.408 83.3432H166.381V83.3896Z" fill="#E25247"/>
<path d="M140.261 84.7369L137.019 97.2802C136.926 97.6054 136.694 97.8841 136.37 97.977C136.185 98.0235 136.046 98.0235 135.861 97.977C135.398 97.8841 135.073 97.466 135.073 97.0014C135.073 96.9085 135.073 96.8621 135.12 96.7692L137.76 86.0377L138.084 84.6904H140.261V84.7369Z" fill="#E25247"/>
<path d="M140.261 84.7368L137.019 97.2801C136.926 97.6053 136.695 97.884 136.37 97.977C137.76 93.5171 138.871 86.0841 138.871 86.0841H137.76L138.084 84.7368H140.261Z" fill="#B2322B"/>
<path d="M161.194 84.7369L164.436 97.2802C164.529 97.6054 164.761 97.8841 165.085 97.977C165.224 98.0235 165.409 98.0235 165.594 97.977C166.057 97.8841 166.381 97.466 166.381 97.0014C166.381 96.9085 166.381 96.8621 166.335 96.7692L163.695 86.0377L163.371 84.6904H161.194V84.7369Z" fill="#E25247"/>
<path d="M161.194 84.7368L164.436 97.2801C164.529 97.6053 164.761 97.884 165.085 97.977C163.695 93.5171 162.584 86.0841 162.584 86.0841H163.695L163.371 84.7368H161.194Z" fill="#B2322B"/>
<path d="M147.624 78.8369C147.624 78.8369 146.003 78.651 145.911 77.5825C145.818 76.514 145.309 76.7463 144.707 76.7463C144.105 76.7928 143.688 76.3747 143.827 75.7243C143.919 75.0739 142.993 74.5164 143.549 74.2377C144.105 73.9589 144.568 74.0054 144.846 74.4699C145.124 74.981 145.772 75.1668 146.513 74.8416C147.254 74.5164 147.671 74.7022 147.486 75.492C147.254 76.3282 148.458 75.2132 148.782 76.6534C149.06 78.1865 147.624 78.8369 147.624 78.8369Z" fill="#1D5B45"/>
<path d="M150.079 78.5582C150.079 78.5582 148.643 76.9787 149.106 76.096C149.57 75.2133 150.357 75.8637 150.588 74.9346C150.82 73.959 151.052 73.6338 151.885 73.7731C152.719 73.959 152.209 72.4724 153.367 72.7046C154.525 72.9369 154.108 73.8661 153.367 74.4235C152.626 74.981 154.201 75.7243 153.043 76.1889C151.885 76.6999 151.144 76.2818 151.561 76.9786C151.978 77.6755 151.329 78.4653 150.82 78.5582C150.264 78.6511 150.079 78.5582 150.079 78.5582Z" fill="#2C8443"/>
<path d="M148.365 78.1866C148.365 78.1866 147.022 77.8149 147.439 76.6071C147.856 75.4456 146.096 75.4456 146.513 74.5165C146.93 73.5874 146.605 73.2622 146.189 72.9834C145.818 72.7047 146.42 71.9614 147.254 72.2866C148.134 72.6582 147.393 74.0519 148.504 74.2378C149.616 74.4236 149.755 75.074 149.523 75.6315C149.292 76.1889 150.681 76.3283 150.635 77.3039C150.542 78.2795 148.365 78.1866 148.365 78.1866Z" fill="#6EAF45"/>
<path d="M152.719 79.5337C152.719 79.7195 152.673 79.9053 152.626 80.0911C152.395 80.8344 151.746 81.3455 150.913 81.3455H146.837C145.865 81.3455 145.077 80.5557 145.077 79.5801C145.077 78.8368 145.54 78.1864 146.189 77.9077C146.374 77.8148 146.606 77.7683 146.837 77.7683H150.913C151.932 77.7218 152.719 78.5116 152.719 79.5337Z" fill="#C3C9E0"/>
<path d="M152.626 80.0448C152.395 80.7881 151.746 81.2991 150.913 81.2991H146.837C145.865 81.2991 145.077 80.5094 145.077 79.5338C145.077 78.7905 145.54 78.1401 146.189 77.8613C146.281 78.0472 146.328 78.2794 146.328 78.5117C146.328 79.3944 147.022 80.0912 147.902 80.0912H152.626V80.0448Z" fill="#9EA9CC"/>
<path d="M155.868 49.151V64.4352C155.868 65.3644 155.081 66.1541 154.155 66.1541H122.059C121.133 66.1541 120.346 65.3644 120.346 64.4352V49.151C120.346 48.2219 121.133 47.4321 122.059 47.4321H154.155C155.081 47.4321 155.868 48.2219 155.868 49.151Z" fill="#E1E6F4"/>
<path d="M155.868 49.151V50.4983H120.346V49.151C120.346 48.8258 120.438 48.5006 120.624 48.2219C120.948 47.7573 121.457 47.4321 122.059 47.4321H154.155C154.757 47.4321 155.313 47.7573 155.59 48.2219C155.776 48.5006 155.868 48.8258 155.868 49.151Z" fill="#6776E8"/>
<path d="M144.614 56.5376H131.739C131.461 56.5376 131.276 56.3517 131.276 56.073V55.2368C131.276 54.958 131.461 54.7722 131.739 54.7722H144.614C144.892 54.7722 145.077 54.958 145.077 55.2368V56.073C145.077 56.3053 144.846 56.5376 144.614 56.5376Z" fill="#C3C9E0"/>
<path d="M130.813 62.995H127.802C127.524 62.995 127.339 62.8092 127.339 62.5305V58.4887C127.339 58.21 127.524 58.0242 127.802 58.0242H130.813C131.09 58.0242 131.276 58.21 131.276 58.4887V62.5305C131.276 62.7628 131.044 62.995 130.813 62.995Z" fill="#8697BF"/>
<path d="M136.833 62.995H133.823C133.545 62.995 133.36 62.8092 133.36 62.5305V58.4887C133.36 58.21 133.545 58.0242 133.823 58.0242H136.833C137.111 58.0242 137.297 58.21 137.297 58.4887V62.5305C137.297 62.7628 137.111 62.995 136.833 62.995Z" fill="#8697BF"/>
<path d="M142.901 62.995H139.89C139.612 62.995 139.427 62.8092 139.427 62.5305V58.4887C139.427 58.21 139.612 58.0242 139.89 58.0242H142.901C143.178 58.0242 143.364 58.21 143.364 58.4887V62.5305C143.364 62.7628 143.178 62.995 142.901 62.995Z" fill="#8697BF"/>
<path d="M148.968 62.995H145.957C145.679 62.995 145.494 62.8092 145.494 62.5305V58.4887C145.494 58.21 145.679 58.0242 145.957 58.0242H148.968C149.245 58.0242 149.431 58.21 149.431 58.4887V62.5305C149.431 62.7628 149.199 62.995 148.968 62.995Z" fill="#8697BF"/>
<path d="M122.939 64.3887H155.868V64.4816C155.868 65.4107 155.081 66.2005 154.155 66.2005H122.059C121.133 66.2005 120.346 65.4107 120.346 64.4816V50.684C120.438 50.5911 120.531 50.5911 120.67 50.5911H155.313C155.59 50.5911 155.868 50.8234 155.868 51.1485C155.868 51.4273 155.637 51.706 155.313 51.706H122.939C122.661 51.706 122.384 51.9383 122.384 52.2635V63.9706C122.384 64.1099 122.615 64.3887 122.939 64.3887Z" fill="#C3C9E0"/>
<path d="M155.59 48.2219H120.624C120.948 47.7573 121.457 47.4321 122.059 47.4321H154.155C154.757 47.4321 155.266 47.7573 155.59 48.2219Z" fill="#67AFE5"/>
</svg>
